<?xml version="1.0" encoding="UTF-8"?>
<svg width="111px" height="111px" viewBox="0 0 111 111" version="1.1" xmlns="http://www.w3.org/2000/svg" xmlns:xlink="http://www.w3.org/1999/xlink">
    <!-- Generator: Sketch 48.2 (47327) - http://www.bohemiancoding.com/sketch -->
    <title>Page 1</title>
    <desc>Created with Sketch.</desc>
    <defs></defs>
    <g id="Tablet-Copy-6" stroke="none" stroke-width="1" fill="none" fill-rule="evenodd" transform="translate(-47.000000, -235.000000)">
        <g id="Page-1" transform="translate(49.000000, 237.000000)">
            <path d="M59.3359305,61.3427442 C60.6358133,57.8465581 62.1597273,54.465907 63.1327586,50.9320465 C64.1592898,47.2039535 63.3935711,43.4967907 61.7944227,39.9830233 C60.2069773,36.4943721 58.0017742,33.4636744 54.8419305,31.2835814 C46.4023055,25.4599535 36.1035555,26.5851628 29.6434305,32.634 C22.414243,39.4045116 20.5434148,48.0319535 24.286743,55.9377209 C26.4919461,60.5967907 29.6986023,64.4052558 34.5420242,66.4748372 C42.2259617,69.7592093 52.7596102,66.1173488 59.3359305,61.3427442 C59.6477352,62.8455349 53.898157,64.9025581 54.6170633,65.6552093 C59.8115789,71.097907 67.4863211,78.4084186 72.8296336,83.7071163 C73.9932586,84.8616279 75.3625242,84.7285116 76.6105789,83.7766047 C77.2701336,83.2734419 77.8368992,82.6413488 78.414532,82.0385581 C80.2051102,80.1707442 80.1984227,79.1317674 78.348493,77.2681395 C74.228993,73.1197674 70.135407,68.9437674 65.949032,64.8632093 C64.0347352,62.997907 62.6571102,59.9446047 59.3359305,61.3427442 M0.0997273438,53.7057209 C-0.0682960937,24.2761395 24.0510086,-0.393069767 54.8586492,0.407302326 C83.3323523,1.14823256 106.522095,24.4670233 106.597329,53.8430233 C106.672563,82.9795814 82.735493,108.208884 51.4864773,107.220977 C23.2886336,106.327674 -0.110092969,83.1846977 0.0997273438,53.7057209" id="Fill-1" fill="#FFFFFF"></path>
            <path d="M59.3359305,61.3427442 C60.6358133,57.8465581 62.1597273,54.465907 63.1327586,50.9320465 C64.1592898,47.2039535 63.3935711,43.4967907 61.7944227,39.9830233 C60.2069773,36.4943721 58.0017742,33.4636744 54.8419305,31.2835814 C46.4023055,25.4599535 36.1035555,26.5851628 29.6434305,32.634 C22.414243,39.4045116 20.5434148,48.0319535 24.286743,55.9377209 C26.4919461,60.5967907 29.6986023,64.4052558 34.5420242,66.4748372 C42.2259617,69.7592093 52.7596102,66.1173488 59.3359305,61.3427442 C59.6477352,62.8455349 53.898157,64.9025581 54.6170633,65.6552093 C59.8115789,71.097907 67.4863211,78.4084186 72.8296336,83.7071163 C73.9932586,84.8616279 75.3625242,84.7285116 76.6105789,83.7766047 C77.2701336,83.2734419 77.8368992,82.6413488 78.414532,82.0385581 C80.2051102,80.1707442 80.1984227,79.1317674 78.348493,77.2681395 C74.228993,73.1197674 70.135407,68.9437674 65.949032,64.8632093 C64.0347352,62.997907 62.6571102,59.9446047 59.3359305,61.3427442 Z M0.0997273438,53.7057209 C-0.0682960937,24.2761395 24.0510086,-0.393069767 54.8586492,0.407302326 C83.3323523,1.14823256 106.522095,24.4670233 106.597329,53.8430233 C106.672563,82.9795814 82.735493,108.208884 51.4864773,107.220977 C23.2886336,106.327674 -0.110092969,83.1846977 0.0997273438,53.7057209 Z" id="Stroke-3" stroke="#517B7E" stroke-width="3"></path>
            <path d="M27.6209633,48.1999814 C27.8709086,51.7279814 28.9592992,55.0885395 31.4662758,57.9216558 C32.186018,58.7370977 32.9116117,59.7810977 33.9498461,58.7781209 C34.2950883,58.4440744 33.9740883,56.9948651 33.5318773,56.3443535 C31.9536273,54.0202605 30.6228148,51.706214 30.4581352,48.7592372 C30.2583461,45.1893767 31.5473617,42.2859349 33.5862133,39.5097488 C34.0300961,38.9036093 33.8537133,37.8403535 33.9632211,36.9872372 C33.1456742,37.3020279 32.0756742,37.3899349 31.5532133,37.9701209 C29.0061117,40.8024 27.7622367,44.2106791 27.6209633,48.1999814" id="Fill-5" fill="#FFFFFF"></path>
            <path d="M27.6209633,48.1999814 C27.7622367,44.2106791 29.0061117,40.8024 31.5532133,37.9701209 C32.0756742,37.3899349 33.1456742,37.3020279 33.9632211,36.9872372 C33.8537133,37.8403535 34.0300961,38.9036093 33.5862133,39.5097488 C31.5473617,42.2859349 30.2583461,45.1893767 30.4581352,48.7592372 C30.6228148,51.706214 31.9536273,54.0202605 33.5318773,56.3443535 C33.9740883,56.9948651 34.2950883,58.4440744 33.9498461,58.7781209 C32.9116117,59.7810977 32.186018,58.7370977 31.4662758,57.9216558 C28.9592992,55.0885395 27.8709086,51.7279814 27.6209633,48.1999814" id="Fill-7" fill="#517B7E"></path>
        </g>
    </g>
</svg>