<?xml version="1.0" encoding="UTF-8"?>
<svg width="110px" height="112px" viewBox="0 0 110 112" version="1.1" xmlns="http://www.w3.org/2000/svg" xmlns:xlink="http://www.w3.org/1999/xlink">
    <!-- Generator: Sketch 48.2 (47327) - http://www.bohemiancoding.com/sketch -->
    <title>Group 3</title>
    <desc>Created with Sketch.</desc>
    <defs>
        <polygon id="path-1" points="0 0.310925373 109.990833 0.310925373 109.990833 111.164179 0 111.164179"></polygon>
    </defs>
    <g id="Tablet-Copy-6" stroke="none" stroke-width="1" fill="none" fill-rule="evenodd" transform="translate(-504.000000, -237.000000)">
        <g id="Group-3" transform="translate(504.000000, 237.000000)">
            <g id="Group">
                <mask id="mask-2" fill="white">
                    <use xlink:href="#path-1"></use>
                </mask>
                <g id="Clip-2"></g>
                <path d="M107.668583,55.7804299 C107.689417,26.4280716 84.43025,2.6264 54.8135833,2.58711642 C25.1010833,2.54699701 1.80608333,26.3194149 1.76858333,55.593206 C1.73108333,85.0650866 24.84025,108.857564 54.73275,108.870937 C84.4194167,108.882639 107.60775,85.1887881 107.668583,55.7804299 M0.10025,55.6049075 C-1.78808333,26.0377433 25.3085833,0.0754746269 54.8019167,0.31201194 C84.8460833,0.553564179 110.048583,25.0289075 109.991083,55.8656836 C109.933583,86.3380418 84.9169167,111.160251 54.3269167,111.16443 C25.2969167,111.168609 -1.86225,85.5247881 0.10025,55.6049075" id="Fill-1" fill="#527B7F" mask="url(#mask-2)"></path>
                <path d="M34.6721667,55.4409194 C34.6721667,63.5141134 34.7055,71.5873075 34.6455,79.6605015 C34.633,81.3597254 35.1696667,81.9531582 36.9163333,81.9439642 C49.3371667,81.8812776 61.758,81.8829493 74.1788333,81.9422925 C75.823,81.9506507 76.3296667,81.4466507 76.3221667,79.802591 C76.268,66.9978149 76.3188333,54.1913672 76.2388333,41.386591 C76.233,40.4170388 75.6846667,39.2519045 75.0163333,38.5222328 C72.4346667,35.7096955 69.7696667,32.9640239 66.9846667,30.3570985 C66.1721667,29.5965015 64.8613333,28.9846806 63.7705,28.9713075 C54.8905,28.8609791 46.008,28.954591 37.1263333,28.8735164 C35.183,28.8559642 34.6205,29.5538746 34.6371667,31.4294567 C34.713,39.4332776 34.6696667,47.4370985 34.6721667,55.4409194 M107.668833,55.7802627 C107.607167,85.1886209 84.4196667,108.882472 54.7321667,108.87077 C24.8405,108.857397 1.7305,85.0649194 1.76883333,55.5938746 C1.80633333,26.3192478 25.1013333,2.54682985 54.8138333,2.58694925 C84.4305,2.62706866 107.689667,26.4279045 107.668833,55.7802627" id="Fill-4" fill="#FFFFFF" mask="url(#mask-2)"></path>
                <path d="M34.6721667,55.4409194 C34.6721667,63.5141134 34.7055,71.5873075 34.6455,79.6605015 C34.633,81.3597254 35.1696667,81.9531582 36.9163333,81.9439642 C49.3371667,81.8812776 61.758,81.8829493 74.1788333,81.9422925 C75.823,81.9506507 76.3296667,81.4466507 76.3221667,79.802591 C76.268,66.9978149 76.3188333,54.1913672 76.2388333,41.386591 C76.233,40.4170388 75.6846667,39.2519045 75.0163333,38.5222328 C72.4346667,35.7096955 69.7696667,32.9640239 66.9846667,30.3570985 C66.1721667,29.5965015 64.8613333,28.9846806 63.7705,28.9713075 C54.8905,28.8609791 46.008,28.954591 37.1263333,28.8735164 C35.183,28.8559642 34.6205,29.5538746 34.6371667,31.4294567 C34.713,39.4332776 34.6696667,47.4370985 34.6721667,55.4409194 Z M107.668833,55.7802627 C107.607167,85.1886209 84.4196667,108.882472 54.7321667,108.87077 C24.8405,108.857397 1.7305,85.0649194 1.76883333,55.5938746 C1.80633333,26.3192478 25.1013333,2.54682985 54.8138333,2.58694925 C84.4305,2.62706866 107.689667,26.4279045 107.668833,55.7802627 Z" id="Stroke-6" stroke="#527B7F" mask="url(#mask-2)"></path>
                <path d="M66.7945,34.1976955 C65.7528333,38.6442627 67.107,40.0434269 71.7678333,38.6685015 C70.0545,37.1280836 68.3745,35.6177552 66.7945,34.1976955 Z M37.1153333,79.4440239 L73.9353333,79.4440239 C73.9353333,67.0488 73.947,54.8073672 73.8828333,42.5667701 C73.8803333,42.1538746 73.1703333,41.5704716 72.672,41.3824119 C72.1245,41.1742925 71.4386667,41.353994 70.8153333,41.3255761 C68.6878333,41.2319642 65.6636667,41.9231881 64.6695,40.8056955 C63.5261667,39.5185313 64.1595,36.6274269 64.0553333,34.4308896 C64.0095,33.4705313 64.0478333,32.5068299 64.0478333,31.3759642 L37.1153333,31.3759642 L37.1153333,79.4440239 Z M34.6711667,55.4409194 C34.6695,47.4370985 34.7128333,39.4332776 34.6378333,31.4294567 C34.6203333,29.5538746 35.1828333,28.8559642 37.1261667,28.8735164 C46.0078333,28.954591 54.8903333,28.8609791 63.7711667,28.9713075 C64.8611667,28.9846806 66.172,29.5965015 66.9845,30.3570985 C69.7695,32.9640239 72.4353333,35.7096955 75.0161667,38.5222328 C75.6845,39.2519045 76.2328333,40.4170388 76.2386667,41.386591 C76.3186667,54.1913672 76.2678333,66.9978149 76.3228333,79.802591 C76.3295,81.4466507 75.8228333,81.9506507 74.1786667,81.9422925 C61.7578333,81.8829493 49.337,81.8812776 36.9161667,81.9439642 C35.1695,81.9531582 34.6328333,81.3597254 34.6453333,79.6605015 C34.7053333,71.5873075 34.672,63.5141134 34.6711667,55.4409194 Z" id="Fill-8" fill="#527B7F" mask="url(#mask-2)"></path>
                <path d="M51.2171667,38.6257075 C48.5871667,38.6257075 45.9563333,38.5738866 43.3296667,38.670006 C42.8088333,38.688394 42.308,39.2709612 41.7971667,39.5935881 C42.288,40.0332299 42.7713333,40.8439761 43.2688333,40.8531701 C48.5263333,40.9459463 53.7871667,40.9467821 59.0446667,40.8565134 C59.5663333,40.8481552 60.0746667,40.0708418 60.5896667,39.6504239 C60.0255,39.3077373 59.4738333,38.693409 58.8963333,38.6691701 C56.3405,38.5613493 53.7771667,38.6223642 51.2171667,38.6257075 Z M55.1405,69.3596776 C59.0163333,69.3596776 62.8921667,69.4073194 66.7655,69.3128716 C67.3913333,69.296991 68.4488333,68.7319761 68.5321667,68.2772896 C68.7688333,66.9892896 67.6588333,66.9675582 66.7296667,66.9667224 C59.048,66.9642149 51.3671667,66.9341254 43.6863333,67.0260657 C43.0546667,67.0327522 42.4321667,67.8727522 41.8046667,68.326603 C42.4438333,68.6709612 43.0763333,69.296991 43.723,69.3137075 C47.5271667,69.4073194 51.3346667,69.3596776 55.1405,69.3596776 Z M55.3246667,62.2552 C59.1346667,62.2552 62.9463333,62.3028418 66.7546667,62.2067224 C67.383,62.1908418 68.4346667,61.6341851 68.5338333,61.1669612 C68.8121667,59.8530507 67.6938333,59.8597373 66.7646667,59.8597373 C59.0746667,59.8580657 51.3838333,59.8263045 43.6946667,59.9132299 C43.0596667,59.9207522 42.4346667,60.7331701 41.8055,61.1711403 C42.4321667,61.5322149 43.0513333,62.1891701 43.6863333,62.2058866 C47.5638333,62.3028418 51.4446667,62.2543642 55.3246667,62.2552 Z M55.1146667,52.8505433 C51.238,52.8505433 47.3613333,52.8087522 43.488,52.8965134 C42.9188333,52.9098866 42.3638333,53.5451104 41.803,53.8919761 C42.3663333,54.3140657 42.9255,55.096394 43.493,55.1030806 C51.313,55.1833194 59.1346667,55.1783045 66.9555,55.1114388 C67.5113333,55.1064239 68.438,54.5422448 68.5421667,54.088394 C68.8138333,52.9065433 67.8438333,52.8438567 66.9496667,52.8463642 C63.0055,52.856394 59.0596667,52.8513791 55.1146667,52.8505433 Z M55.3205,48.0420657 C59.1263333,48.0420657 62.9321667,48.0429015 66.738,48.0420657 C67.648,48.0420657 68.7905,48.1348418 68.528,46.7883343 C68.4405,46.3378269 67.3738333,45.7836776 66.7505,45.7786627 C59.0696667,45.7092896 51.388,45.7092896 43.7071667,45.776991 C43.0705,45.7828418 41.9746667,46.327797 41.8921667,46.7716179 C41.648,48.0846925 42.773,48.0429015 43.6946667,48.0429015 C47.5696667,48.0429015 51.4446667,48.0429015 55.3205,48.0420657 Z M37.1155,79.4438567 L37.1155,31.375797 L64.0471667,31.375797 C64.0471667,32.5066627 64.0096667,33.4703642 64.0555,34.4307224 C64.1596667,36.6272597 63.5263333,39.5183642 64.6696667,40.8055284 C65.6638333,41.9230209 68.688,41.231797 70.8155,41.325409 C71.4388333,41.3538269 72.1246667,41.1741254 72.6721667,41.3822448 C73.1705,41.5703045 73.8805,42.1537075 73.883,42.566603 C73.9471667,54.8072 73.9355,67.0486328 73.9355,79.4438567 L37.1155,79.4438567 Z" id="Fill-10" fill="#FFFFFF" mask="url(#mask-2)"></path>
                <path d="M66.7945,34.1976955 C68.3745,35.6177552 70.0545,37.1280836 71.7678333,38.6685015 C67.107,40.0434269 65.7528333,38.6442627 66.7945,34.1976955" id="Fill-12" fill="#FFFFFF" mask="url(#mask-2)"></path>
                <path d="M66.7945,34.1976955 C68.3745,35.6177552 70.0545,37.1280836 71.7678333,38.6685015 C67.107,40.0434269 65.7528333,38.6442627 66.7945,34.1976955 Z" id="Stroke-14" stroke="#527B7F" mask="url(#mask-2)"></path>
                <path d="M55.3203333,48.0425672 L43.6945,48.0425672 C42.7728333,48.0425672 41.6478333,48.085194 41.892,46.7712836 C41.9745,46.3274627 43.0703333,45.7825075 43.707,45.7766567 C51.3878333,45.7089552 59.0695,45.7089552 66.7503333,45.7783284 C67.3736667,45.7841791 68.4403333,46.3374925 68.5286667,46.788 C68.7911667,48.1345075 67.6478333,48.0417313 66.7386667,48.0417313 C62.932,48.0425672 59.1261667,48.0417313 55.3203333,48.0425672" id="Fill-16" fill="#527B7F" mask="url(#mask-2)"></path>
                <path d="M55.1144167,52.8510448 C59.0594167,52.8510448 63.00525,52.8568955 66.95025,52.8460299 C67.8435833,52.8435224 68.8135833,52.906209 68.5419167,54.0880597 C68.43775,54.5419104 67.5110833,55.1060896 66.95525,55.1111045 C59.13525,55.1779701 51.31275,55.1829851 43.49275,55.1027463 C42.9260833,55.0968955 42.3660833,54.3137313 41.80275,53.8916418 C42.3644167,53.5447761 42.9185833,52.9095522 43.48775,52.8970149 C47.3610833,52.8084179 51.2385833,52.850209 55.1144167,52.8510448" id="Fill-18" fill="#527B7F" mask="url(#mask-2)"></path>
                <path d="M55.3244167,62.2547821 C51.4444167,62.2539463 47.5635833,62.3032597 43.6860833,62.2054687 C43.0510833,62.1895881 42.4319167,61.5326328 41.80525,61.1707224 C42.4344167,60.7335881 43.06025,59.9203343 43.6944167,59.9128119 C51.3835833,59.8267224 59.0744167,59.8584836 66.7644167,59.8601552 C67.6935833,59.8601552 68.8119167,59.8534687 68.5335833,61.1665433 C68.4344167,61.634603 67.3835833,62.1912597 66.7544167,62.2063045 C62.9460833,62.3032597 59.1344167,62.2547821 55.3244167,62.2547821" id="Fill-20" fill="#527B7F" mask="url(#mask-2)"></path>
                <path d="M55.1405,69.3600955 C51.3346667,69.3600955 47.5271667,69.4077373 43.723,69.3132896 C43.0763333,69.297409 42.4438333,68.6713791 41.8046667,68.3270209 C42.4321667,67.8731701 43.0546667,67.0331701 43.6863333,67.0256478 C51.3671667,66.9345433 59.048,66.9646328 66.7296667,66.9671403 C67.6588333,66.9679761 68.7688333,66.9888716 68.5321667,68.2768716 C68.4488333,68.7315582 67.3913333,69.297409 66.7655,69.3124537 C62.8921667,69.4077373 59.0163333,69.3600955 55.1405,69.3600955" id="Fill-22" fill="#527B7F" mask="url(#mask-2)"></path>
                <path d="M51.2171667,38.6241194 C53.7771667,38.6224478 56.3405,38.5614328 58.8963333,38.6692537 C59.4738333,38.6934925 60.0255,39.3078209 60.5896667,39.6505075 C60.0746667,40.0709254 59.5663333,40.8482388 59.0446667,40.856597 C53.7871667,40.9468657 48.5263333,40.9460299 43.2688333,40.8532537 C42.7713333,40.8440597 42.288,40.0333134 41.7971667,39.5936716 C42.308,39.2710448 42.8088333,38.6884776 43.3296667,38.6700896 C45.9563333,38.5739701 48.5871667,38.625791 51.2171667,38.6241194" id="Fill-24" fill="#527B7F" mask="url(#mask-2)"></path>
            </g>
        </g>
    </g>
</svg>