<?xml version="1.0" encoding="UTF-8"?>
<svg width="112px" height="112px" viewBox="0 0 112 112" version="1.1" xmlns="http://www.w3.org/2000/svg" xmlns:xlink="http://www.w3.org/1999/xlink">
    <!-- Generator: Sketch 48.2 (47327) - http://www.bohemiancoding.com/sketch -->
    <title>Group 2</title>
    <desc>Created with Sketch.</desc>
    <defs>
        <polygon id="path-1" points="6.40229357e-05 0.38909511 111.610507 0.38909511 111.610507 111.163634 6.40229357e-05 111.163634"></polygon>
    </defs>
    <g id="Tablet-Copy-6" stroke="none" stroke-width="1" fill="none" fill-rule="evenodd" transform="translate(-274.000000, -237.000000)">
        <g id="Group-2" transform="translate(274.000000, 237.000000)">
            <g id="Page-1">
                <g id="Group-3" transform="translate(0.000000, 0.447164)">
                    <mask id="mask-2" fill="white">
                        <use xlink:href="#path-1"></use>
                    </mask>
                    <g id="Clip-2"></g>
                    <path d="M109.159379,55.8226388 C109.590663,27.102997 85.5240358,3.08484776 55.9894687,3.01380299 C26.0528716,2.94192239 2.42505075,27.0637134 2.36654328,55.6788776 C2.30803582,84.5163701 26.1239164,108.521982 55.7412299,108.572967 C85.4596776,108.624788 109.57311,84.4327881 109.159379,55.8226388 M111.54314,55.9471761 C112.802722,85.357206 86.4309015,111.434818 55.9033791,111.161504 C40.7591403,111.026937 27.6083343,105.868251 16.722603,95.3904 C4.18863284,83.326997 -0.740202985,68.4844896 0.0889313433,51.1102806 C1.29167761,25.8994149 25.1894687,0.47959403 55.8390209,0.389325373 C85.8984836,0.299892537 113.152931,26.2746985 111.54314,55.9471761" id="Fill-1" fill="#517B7E" mask="url(#mask-2)"></path>
                </g>
                <path d="M59.2810985,65.2475224 C59.6555463,65.062806 59.876203,65.0109851 60.0166209,64.8755821 C61.5620537,63.3878209 63.1517851,61.9376716 64.5776955,60.3412537 C64.8267701,60.0629254 64.5643224,58.9337313 64.1856955,58.6044179 C63.8405015,58.305194 62.8024119,58.3068657 62.437994,58.6136119 C60.9594269,59.8581493 59.5836657,61.2364179 58.261397,62.6506269 C57.9747104,62.9573731 57.8560239,63.718806 58.0348896,64.0890746 C58.2739343,64.582209 58.8807403,64.8981493 59.2810985,65.2475224 M32.9443821,29.8513433 C31.6104119,31.1201194 30.4611582,32.022806 29.6178149,33.1545075 C29.4172179,33.4236418 30.0758448,34.6698507 30.6258149,35.0986269 C32.2941134,36.3974925 34.2942328,37.3118806 35.8204418,38.7436418 C40.2268896,42.8784478 44.4661731,47.1921194 48.7648,51.440597 C49.5554866,52.2220896 50.2542328,52.8882388 51.3525015,51.7498507 C52.428203,50.633194 51.6149493,50.078209 50.901994,49.3769552 C46.4905313,45.038209 42.0723821,40.7061493 37.7085612,36.3197612 C37.1285015,35.7363582 36.9203821,34.8010746 36.4105313,34.127403 C35.3582328,32.736597 34.219009,31.4118209 32.9443821,29.8513433 M83.564203,78.4526567 C82.9473672,77.513194 82.4667701,76.4408358 81.6936358,75.6568358 C78.1840239,72.1012537 74.613397,68.6050149 71.0210388,65.1321791 C69.452203,63.616 67.7780537,62.2093134 66.1515463,60.7524776 C64.4715463,62.286209 62.7923821,63.8199403 61.1123821,65.3536716 C61.0605612,65.4013134 60.9669493,65.4456119 60.9652776,65.4949254 C60.9351881,66.1426866 60.6267701,67.0779701 60.9410388,67.3955821 C65.8707104,72.3795821 70.8739343,77.2917015 75.877994,82.2013134 C77.0932776,83.3923582 78.6704716,83.7225075 80.1047403,82.9694328 C81.7496358,82.105194 83.3067701,80.9266866 83.564203,78.4526567 M76.1638448,29.9416119 C76.0618746,29.6825075 75.9607403,29.4242388 75.859606,29.1651343 C74.5808,29.1651343 73.3011582,29.143403 72.0231881,29.1684776 C64.9412776,29.3063881 60.0015761,35.4613731 61.2594866,42.4471642 C61.3589493,42.998806 60.8507701,43.8262687 60.3885612,44.2884776 C54.0839642,50.5797015 47.7183522,56.8099104 41.419606,63.1069851 C40.3154866,64.2119403 39.2005015,64.6682985 37.5957254,64.721791 C31.2150687,64.9340896 26.9256358,70.3493731 28.7276657,76.897194 C29.9003224,81.1590448 34.8659343,83.8871642 39.3400836,83.1775522 C43.8150687,82.4671045 47.3313672,78.3690746 47.2093373,73.7795821 C47.1700537,72.310209 47.6247403,71.3072239 48.6444418,70.3176119 C54.4901731,64.6457313 60.3434269,58.9788657 66.0688,53.1882985 C67.7822328,51.4556418 69.4045612,50.5061493 72.0114866,50.647403 C77.3498746,50.9349254 81.5490388,47.702806 82.9406806,42.4973134 C83.4814567,40.4696119 83.517397,38.2922985 82.3405612,35.9419701 C81.1896358,37.0552836 80.2526806,37.9412537 79.3366209,38.8489552 C76.8341731,41.3338507 76.8383522,41.337194 73.558591,39.9639403 C71.5058149,39.1055522 70.7803224,35.3978507 72.3458149,33.8306866 C73.6288,32.545194 74.8917254,31.238806 76.1638448,29.9416119 M109.159546,56.2699701 C109.573278,84.8801194 85.459009,109.072119 55.741397,109.020299 C26.1240836,108.969313 2.30820299,84.9628657 2.36671045,56.1253731 C2.42521791,27.5110448 26.0530388,3.38925373 55.9896358,3.46113433 C85.5233672,3.5321791 109.589994,27.5494925 109.159546,56.2699701" id="Fill-4" fill="#FFFFFF"></path>
                <path d="M68.1029373,33.1688 C64.7838925,35.3628299 63.2852657,38.8649194 64.426997,42.2683821 C64.8925493,43.6566806 64.6125493,44.3863522 63.652191,45.3266507 C56.9397134,51.9020537 50.2297433,58.4808 43.6401313,65.177397 C41.8422806,67.0053373 40.1631164,68.0785313 37.3915343,67.8478448 C33.5250269,67.5252179 30.5495045,71.5354866 31.4271164,75.3142328 C32.2604299,78.9040836 35.1022209,80.6542925 39.2428776,80.1260537 C42.0504,79.7683224 44.3179821,77.0385313 44.0530269,73.8039045 C43.8733254,71.6107104 44.6506388,70.2107104 46.1634746,68.752203 C52.6795343,62.4693373 59.1345791,56.1212776 65.4968478,49.6837851 C67.1977433,47.9628299 68.7398328,47.0668299 71.291594,47.7313075 C74.0539821,48.4517851 78.1219224,46.7926806 78.8039522,44.3153075 C75.7373254,44.5050388 72.4918328,43.5062328 70.624609,41.5972179 C68.7699224,39.7024119 67.2637731,36.6232478 68.1029373,33.1688 M76.1644299,29.9416955 C74.8914746,31.2388896 73.6285493,32.5452776 72.3455642,33.8307701 C70.7800716,35.3979343 71.5055642,39.1056358 73.5583403,39.9640239 C76.8381015,41.3372776 76.8339224,41.3339343 79.3363701,38.8490388 C80.2524299,37.9405015 81.1893851,37.0545313 82.3403104,35.9420537 C83.5171463,38.2923821 83.481206,40.4696955 82.9404299,42.497397 C81.5487881,47.7028896 77.3496239,50.935009 72.0120716,50.6474866 C69.4051463,50.5062328 67.7819821,51.4557254 66.0685493,53.1883821 C60.3431761,58.9789493 54.4899224,64.6458149 48.6450269,70.3176955 C47.6253254,71.3073075 47.169803,72.3102925 47.2090866,73.7788299 C47.3311164,78.3691582 43.8148179,82.4663522 39.3398328,83.1776358 C34.8656836,83.8872478 29.9000716,81.1591284 28.7274149,76.8964418 C26.9253851,70.3486209 31.2156537,64.9341731 37.5954746,64.7218746 C39.2002507,64.6683821 40.3152358,64.2120239 41.4193552,63.1070687 C47.7181015,56.809994 54.0837134,50.5797851 60.3883104,44.2885612 C60.8513552,43.8263522 61.3586985,42.9988896 61.2592358,42.4472478 C60.0021612,35.4614567 64.9418627,29.3064716 72.0229373,29.1685612 C73.3017433,29.1434866 74.5805493,29.1643821 75.8593552,29.1643821 C75.9604896,29.4243224 76.0616239,29.682591 76.1644299,29.9416955" id="Fill-6" fill="#517B7E"></path>
                <path d="M66.1448597,64.7125134 C65.6559045,65.1697075 65.0541134,65.5115582 64.8301134,66.0197373 C64.6754866,66.3699463 64.8928,67.0987821 65.1978746,67.4072 C69.2073075,71.4525731 73.2301134,75.4870806 77.3507104,79.4171104 C77.7878448,79.8341851 79.0708299,79.9060657 79.6024119,79.5700657 C80.7224119,78.8612896 79.9534567,78.0455284 79.2781134,77.3818866 C75.3154866,73.4886328 71.356203,69.5912 67.3877254,65.7046328 C67.0517254,65.3753194 66.6513672,65.1128716 66.1448597,64.7125134 M83.564203,78.4525731 C83.3067701,80.926603 81.7496358,82.1051104 80.1047403,82.9693493 C78.6704716,83.7224239 77.0932776,83.3922746 75.8788299,82.2012299 C70.8739343,77.2916179 65.8707104,72.3794985 60.9410388,67.3954985 C60.6267701,67.0787224 60.9351881,66.142603 60.9652776,65.4948418 C60.9669493,65.4455284 61.0605612,65.4012299 61.1123821,65.3544239 C62.7923821,63.8206925 64.4715463,62.2861254 66.1515463,60.752394 C67.7780537,62.2092299 69.452203,63.6159164 71.0210388,65.1320955 C74.613397,68.6049313 78.1840239,72.1011701 81.6944716,75.6567522 C82.4667701,76.4407522 82.948203,77.5131104 83.564203,78.4525731" id="Fill-8" fill="#517B7E"></path>
                <path d="M32.9446328,29.8512597 C34.2184239,31.4117373 35.3584836,32.7365134 36.4099463,34.1273194 C36.9206328,34.800991 37.1287522,35.7371104 37.7088119,36.3196776 C42.071797,40.7060657 46.4907821,45.0381254 50.9022448,49.3768716 C51.6143642,50.0781254 52.4284537,50.6331104 51.3519164,51.7497672 C50.2544836,52.8881552 49.5557373,52.2228418 48.7650507,51.4413493 C44.4664239,47.1920358 40.2263045,42.8783642 35.8206925,38.7435582 C34.2944836,37.311797 32.2943642,36.397409 30.6260657,35.0985433 C30.0752597,34.6697672 29.4174687,33.4235582 29.6180657,33.1544239 C30.4605731,32.0227224 31.6106627,31.1200358 32.9446328,29.8512597" id="Fill-10" fill="#517B7E"></path>
                <path d="M59.2810985,65.2475224 C58.8807403,64.8981493 58.2739343,64.582209 58.0348896,64.0890746 C57.8560239,63.718806 57.9747104,62.9573731 58.261397,62.6506269 C59.5836657,61.2364179 60.9594269,59.8581493 62.437994,58.6136119 C62.8024119,58.3068657 63.8405015,58.305194 64.1856955,58.6044179 C64.5643224,58.9337313 64.8267701,60.0629254 64.5776955,60.3412537 C63.1517851,61.9376716 61.5620537,63.3878209 60.0166209,64.8755821 C59.876203,65.0109851 59.6555463,65.062806 59.2810985,65.2475224" id="Fill-12" fill="#517B7E"></path>
                <path d="M37.0624716,68.8071164 C35.8246209,68.7736836 32.4637851,71.9238925 32.4763224,73.1065791 C32.5130985,76.5443104 34.8191284,78.9389373 38.2485015,79.0994149 C39.7237254,79.1687881 42.9449791,76.3052657 43.0051582,74.8701612 C43.1489194,71.4541612 40.6489791,68.9032358 37.0624716,68.8071164 M68.1031881,33.1685493 C67.2640239,36.6238328 68.7701731,39.7021612 70.6240239,41.597803 C72.4920836,43.5059821 75.7367403,44.5056239 78.8033672,44.3150567 C78.1221731,46.7932657 74.0542328,48.4515343 71.2918448,47.7318925 C68.7392478,47.0665791 67.197994,47.9634149 65.4970985,49.6843701 C59.133994,56.1218627 52.6797851,62.4690866 46.1637254,68.7519522 C44.6508896,70.2112955 43.8735761,71.6104597 44.0532776,73.8044896 C44.3182328,77.0382806 42.0498149,79.7680716 39.2422925,80.125803 C35.1024716,80.6540418 32.2606806,78.9046687 31.4265313,75.3148179 C30.5497552,71.5360716 33.5252776,67.5249672 37.3917851,67.847594 C40.1633672,68.0782806 41.8425313,67.0050866 43.6403821,65.1779821 C50.2291582,58.4805493 56.9399642,51.901803 63.651606,45.3272358 C64.6119642,44.3861015 64.8919642,43.6572657 64.4264119,42.2689672 C63.2855164,38.8655045 64.7841433,35.3625791 68.1031881,33.1685493" id="Fill-14" fill="#FFFFFF"></path>
                <path d="M66.1448597,64.7125134 C66.6513672,65.1128716 67.0517254,65.3753194 67.3877254,65.7046328 C71.356203,69.5912 75.3154866,73.4886328 79.2781134,77.3818866 C79.9534567,78.0455284 80.7224119,78.8612896 79.6024119,79.5700657 C79.0708299,79.9060657 77.7878448,79.8341851 77.3507104,79.4171104 C73.2301134,75.4870806 69.2073075,71.4525731 65.1978746,67.4072 C64.8928,67.0987821 64.6754866,66.3699463 64.8301134,66.0197373 C65.0541134,65.5115582 65.6559045,65.1697075 66.1448597,64.7125134" id="Fill-16" fill="#FFFFFF"></path>
                <path d="M37.3498269,76.7458269 C38.4731701,75.5756776 39.6332896,74.8903045 39.5981851,74.2726328 C39.5547224,73.5045134 38.5233194,72.7932299 37.9190209,72.0568716 C37.2428418,72.6728716 36.2373493,73.184394 35.9991403,73.9391403 C35.8227821,74.4974687 36.6435582,75.3709015 37.3498269,76.7458269 M37.0623045,68.8072 C40.6488119,68.9033194 43.1487522,71.4542448 43.0058269,74.8702448 C42.9448119,76.3053493 39.7235582,79.1688716 38.2483343,79.0994985 C34.819797,78.9390209 32.5129313,76.544394 32.4761552,73.1066627 C32.4636179,71.9239761 35.8244537,68.7737672 37.0623045,68.8072" id="Fill-18" fill="#517B7E"></path>
                <path d="M37.3498269,76.7458269 C36.6435582,75.3709015 35.8227821,74.4974687 35.9991403,73.9391403 C36.2373493,73.184394 37.2428418,72.6728716 37.9190209,72.0568716 C38.5233194,72.7932299 39.5547224,73.5045134 39.5981851,74.2726328 C39.6332896,74.8903045 38.4731701,75.5756776 37.3498269,76.7458269" id="Fill-20" fill="#FFFFFF"></path>
            </g>
        </g>
    </g>
</svg>